<svg width="183" height="83" viewBox="0 0 183 83" fill="none" xmlns="http://www.w3.org/2000/svg">
<g clip-path="url(#clip0_29_944)">
<g filter="url(#filter0_d_29_944)">
<path d="M57.0696 56.9655L134.42 44.725V16.9484M57.0696 56.9655V28.2474M57.0696 56.9655L4.24487 34.8384V8.00342M134.42 16.9484L57.0696 28.2474M134.42 16.9484L73.5774 0L4.24487 8.00342M57.0696 28.2474L4.24487 8.00342" stroke="#00C2E8" stroke-width="2" stroke-linecap="square" stroke-linejoin="round" shape-rendering="crispEdges"/>
</g>
<path d="M59.2233 68.4409C59.0608 68.6641 59.11 68.9768 59.3333 69.1394L62.9717 71.7894C63.1949 71.952 63.5077 71.9029 63.6702 71.6797C63.8328 71.4566 63.7835 71.1438 63.5602 70.9812L60.3261 68.6257L62.6804 65.3931C62.8429 65.17 62.7937 64.8573 62.5704 64.6946C62.3471 64.532 62.0344 64.5811 61.8719 64.8043L59.2233 68.4409ZM135.024 57.2599C135.187 57.0368 135.137 56.724 134.914 56.5614L131.276 53.9115C131.052 53.7489 130.74 53.798 130.577 54.0211C130.415 54.2443 130.464 54.557 130.687 54.7196L133.921 57.0751L131.567 60.3077C131.404 60.5309 131.454 60.8436 131.677 61.0062C131.9 61.1688 132.213 61.1197 132.376 60.8966L135.024 57.2599ZM59.7053 69.2293L134.698 57.4594L134.542 56.4716L59.5498 68.2414L59.7053 69.2293Z" fill="black"/>
<path d="M-0.182587 45.1966C-0.439801 45.2976 -0.56654 45.5877 -0.465666 45.8445L1.17816 50.0302C1.27903 50.2871 1.56932 50.4134 1.82653 50.3124C2.08375 50.2114 2.21049 49.9213 2.10961 49.6645L0.648434 45.9439L4.37425 44.4809C4.63146 44.3799 4.7582 44.0898 4.65733 43.8329C4.55645 43.5761 4.26617 43.4497 4.00895 43.5507L-0.182587 45.1966ZM52.3196 68.8188C52.5768 68.7178 52.7035 68.4277 52.6026 68.1709L50.9588 63.9852C50.858 63.7284 50.5677 63.602 50.3104 63.703C50.0532 63.804 49.9265 64.0941 50.0274 64.351L51.4885 68.0716L47.7627 69.5346C47.5055 69.6356 47.3788 69.9257 47.4797 70.1825C47.5805 70.4394 47.8708 70.5657 48.128 70.4647L52.3196 68.8188ZM-0.200107 46.1198L51.9368 68.8119L52.3371 67.8956L0.200228 45.2035L-0.200107 46.1198Z" fill="black"/>
<path d="M143.003 45.3284C143.198 45.5243 143.515 45.5254 143.71 45.3308L146.903 42.1597C147.099 41.9651 147.1 41.6485 146.905 41.4526C146.711 41.2567 146.394 41.2556 146.198 41.4502L143.36 44.269L140.541 41.431C140.347 41.235 140.03 41.234 139.834 41.4286C139.638 41.6232 139.637 41.9397 139.832 42.1357L143.003 45.3284ZM143.803 17.2708C143.608 17.0748 143.291 17.0738 143.095 17.2684L139.903 20.4395C139.707 20.6341 139.706 20.9507 139.901 21.1466C140.095 21.3425 140.412 21.3436 140.608 21.149L143.445 18.3302L146.265 21.1682C146.459 21.3642 146.776 21.3652 146.972 21.1706C147.168 20.976 147.169 20.6595 146.974 20.4635L143.803 17.2708ZM143.858 44.9778L143.948 17.6248L142.948 17.6214L142.858 44.9744L143.858 44.9778Z" fill="black"/>
<path d="M154.42 31.7874V35.0687H153.581V27.7959H154.42V30.4664H154.491C154.618 30.1847 154.81 29.9609 155.066 29.7952C155.324 29.6271 155.667 29.5431 156.096 29.5431C156.467 29.5431 156.793 29.6177 157.072 29.7668C157.352 29.9136 157.568 30.1397 157.722 30.4451C157.878 30.7481 157.956 31.134 157.956 31.6028V35.0687H157.118V31.6596C157.118 31.2263 157.006 30.8913 156.781 30.6546C156.559 30.4155 156.25 30.2959 155.854 30.2959C155.58 30.2959 155.333 30.3539 155.116 30.4699C154.9 30.5859 154.73 30.7552 154.604 30.9778C154.481 31.2003 154.42 31.4702 154.42 31.7874ZM161.777 35.1823C161.251 35.1823 160.798 35.0663 160.417 34.8343C160.038 34.5999 159.745 34.2732 159.539 33.8542C159.336 33.4328 159.234 32.9427 159.234 32.384C159.234 31.8253 159.336 31.3329 159.539 30.9067C159.745 30.4782 160.032 30.1444 160.399 29.9053C160.768 29.6638 161.199 29.5431 161.691 29.5431C161.975 29.5431 162.256 29.5904 162.533 29.6851C162.81 29.7798 163.062 29.9337 163.289 30.1468C163.517 30.3575 163.698 30.6368 163.833 30.9849C163.968 31.3329 164.035 31.7614 164.035 32.2704V32.6255H159.831V31.9011H163.183C163.183 31.5933 163.121 31.3187 162.998 31.0772C162.877 30.8357 162.705 30.6451 162.48 30.5055C162.257 30.3658 161.994 30.2959 161.691 30.2959C161.358 30.2959 161.069 30.3788 160.825 30.5445C160.583 30.7079 160.398 30.9209 160.267 31.1837C160.137 31.4465 160.072 31.7282 160.072 32.0289V32.5118C160.072 32.9238 160.143 33.273 160.285 33.5594C160.43 33.8435 160.63 34.0601 160.885 34.2093C161.141 34.3561 161.438 34.4295 161.777 34.4295C161.997 34.4295 162.196 34.3987 162.373 34.3371C162.553 34.2732 162.708 34.1785 162.838 34.053C162.969 33.9252 163.069 33.7666 163.14 33.5772L163.95 33.8045C163.865 34.0791 163.721 34.3206 163.52 34.5289C163.319 34.7349 163.07 34.8958 162.775 35.0118C162.479 35.1255 162.146 35.1823 161.777 35.1823ZM165.31 35.0687V29.6141H166.148V35.0687H165.31ZM165.736 28.705C165.573 28.705 165.432 28.6494 165.314 28.5381C165.198 28.4269 165.14 28.2931 165.14 28.1368C165.14 27.9806 165.198 27.8468 165.314 27.7356C165.432 27.6243 165.573 27.5687 165.736 27.5687C165.9 27.5687 166.039 27.6243 166.155 27.7356C166.274 27.8468 166.333 27.9806 166.333 28.1368C166.333 28.2931 166.274 28.4269 166.155 28.5381C166.039 28.6494 165.9 28.705 165.736 28.705ZM169.885 37.2278C169.48 37.2278 169.132 37.1757 168.841 37.0715C168.55 36.9697 168.307 36.8348 168.113 36.6667C167.921 36.501 167.768 36.3234 167.655 36.134L168.322 35.6653C168.398 35.7647 168.494 35.8783 168.61 36.0062C168.726 36.1364 168.885 36.2488 169.086 36.3435C169.289 36.4406 169.556 36.4891 169.885 36.4891C170.325 36.4891 170.689 36.3826 170.975 36.1695C171.261 35.9564 171.405 35.6226 171.405 35.1681V34.0601H171.334C171.272 34.1596 171.184 34.2827 171.071 34.4295C170.96 34.5739 170.799 34.7029 170.588 34.8165C170.38 34.9278 170.098 34.9834 169.743 34.9834C169.302 34.9834 168.907 34.8793 168.557 34.6709C168.209 34.4626 167.933 34.1596 167.729 33.7618C167.528 33.3641 167.427 32.8812 167.427 32.313C167.427 31.7543 167.526 31.2678 167.722 30.8535C167.919 30.4368 168.192 30.1148 168.542 29.8876C168.893 29.6579 169.298 29.5431 169.757 29.5431C170.112 29.5431 170.394 29.6023 170.602 29.7207C170.813 29.8367 170.974 29.9692 171.085 30.1184C171.199 30.2652 171.286 30.3859 171.348 30.4806H171.433V29.6141H172.243V35.2249C172.243 35.6937 172.136 36.0748 171.923 36.3684C171.712 36.6643 171.428 36.8809 171.071 37.0182C170.716 37.1579 170.32 37.2278 169.885 37.2278ZM169.856 34.2306C170.193 34.2306 170.477 34.1537 170.709 33.9998C170.941 33.8459 171.117 33.6245 171.238 33.3357C171.358 33.0469 171.419 32.7012 171.419 32.2988C171.419 31.9058 171.36 31.559 171.241 31.2583C171.123 30.9576 170.948 30.7221 170.716 30.5516C170.484 30.3812 170.197 30.2959 169.856 30.2959C169.501 30.2959 169.205 30.3859 168.969 30.5658C168.734 30.7457 168.558 30.9872 168.439 31.2903C168.323 31.5933 168.265 31.9295 168.265 32.2988C168.265 32.6776 168.325 33.0126 168.443 33.3037C168.564 33.5926 168.741 33.8198 168.976 33.9856C169.212 34.1489 169.506 34.2306 169.856 34.2306ZM174.615 31.7874V35.0687H173.777V27.7959H174.615V30.4664H174.686C174.814 30.1847 175.006 29.9609 175.261 29.7952C175.519 29.6271 175.863 29.5431 176.291 29.5431C176.663 29.5431 176.988 29.6177 177.268 29.7668C177.547 29.9136 177.764 30.1397 177.917 30.4451C178.074 30.7481 178.152 31.134 178.152 31.6028V35.0687H177.314V31.6596C177.314 31.2263 177.201 30.8913 176.976 30.6546C176.754 30.4155 176.445 30.2959 176.05 30.2959C175.775 30.2959 175.529 30.3539 175.311 30.4699C175.095 30.5859 174.925 30.7552 174.8 30.9778C174.676 31.2003 174.615 31.4702 174.615 31.7874ZM182.057 29.6141V30.3243H179.23V29.6141H182.057ZM180.054 28.3073H180.892V33.5062C180.892 33.7429 180.927 33.9205 180.995 34.0388C181.066 34.1548 181.156 34.233 181.265 34.2732C181.377 34.3111 181.494 34.33 181.617 34.33C181.709 34.33 181.785 34.3253 181.844 34.3158C181.903 34.304 181.951 34.2945 181.986 34.2874L182.157 35.0403C182.1 35.0616 182.02 35.0829 181.919 35.1042C181.817 35.1279 181.688 35.1397 181.532 35.1397C181.295 35.1397 181.063 35.0888 180.836 34.987C180.611 34.8852 180.424 34.7301 180.275 34.5218C180.128 34.3135 180.054 34.0507 180.054 33.7334V28.3073Z" fill="black"/>
<path d="M90.0306 71.6077L91.1339 78.7962L90.3055 78.9229L89.2022 71.7343L90.0306 71.6077ZM94.9291 78.3308C94.4096 78.4102 93.9439 78.3641 93.5319 78.1924C93.1219 78.018 92.7833 77.7393 92.5162 77.3562C92.251 76.9705 92.076 76.5015 91.9912 75.9492C91.9065 75.397 91.9324 74.8949 92.069 74.4429C92.2076 73.9882 92.4401 73.615 92.7666 73.3232C93.095 73.0287 93.5026 72.8442 93.9894 72.7697C94.2702 72.7268 94.5547 72.7312 94.8429 72.7829C95.1311 72.8347 95.4037 72.9486 95.6606 73.1249C95.9173 73.2988 96.1387 73.5475 96.3249 73.8711C96.511 74.1947 96.6427 74.6081 96.72 75.1112L96.7738 75.4622L92.6176 76.0977L92.5077 75.3817L95.8215 74.875C95.7748 74.5708 95.6723 74.3086 95.5139 74.0885C95.358 73.8681 95.1582 73.7059 94.9147 73.6018C94.6735 73.4974 94.4032 73.4681 94.1036 73.5139C93.7736 73.5643 93.5007 73.6899 93.2848 73.8906C93.0709 74.0885 92.9195 74.3272 92.8307 74.6066C92.7418 74.8861 92.7202 75.1744 92.7658 75.4716L92.8391 75.9489C92.9016 76.3561 93.0247 76.6905 93.2086 76.9522C93.3945 77.2111 93.6251 77.395 93.9004 77.5038C94.1755 77.6102 94.4803 77.6378 94.8149 77.5867C95.0326 77.5534 95.2245 77.4929 95.3907 77.4052C95.5588 77.3149 95.6977 77.1978 95.8074 77.0541C95.9167 76.9081 95.9921 76.7361 96.0336 76.5381L96.8684 76.6404C96.8259 76.9247 96.7209 77.185 96.5536 77.4214C96.3859 77.6554 96.1646 77.8521 95.8897 78.0115C95.6144 78.1685 95.2942 78.275 94.9291 78.3308ZM98.7353 74.3144L99.2331 77.5577L98.4047 77.6844L97.5772 72.2929L98.3776 72.1706L98.5069 73.013L98.5771 73.0022C98.6614 72.7091 98.8196 72.4598 99.0515 72.2543C99.283 72.0465 99.6024 71.9114 100.01 71.8491C100.375 71.7933 100.706 71.8193 101.002 71.9272C101.299 72.0328 101.546 72.2249 101.745 72.5035C101.943 72.7797 102.077 73.1472 102.147 73.6058L102.673 77.0316L101.845 77.1583L101.328 73.7887C101.263 73.3651 101.102 73.052 100.846 72.8493C100.589 72.6443 100.269 72.5711 99.8851 72.6298C99.6207 72.6702 99.3931 72.7637 99.2024 72.9102C99.0141 73.0563 98.8771 73.2485 98.7915 73.4867C98.706 73.725 98.6872 74.0008 98.7353 74.3144ZM106.691 78.6014C106.291 78.6626 105.939 78.6637 105.635 78.6048C105.332 78.5482 105.072 78.4515 104.854 78.3147C104.64 78.1799 104.462 78.0274 104.321 77.8574L104.909 77.2932C104.999 77.38 105.111 77.4778 105.245 77.5867C105.38 77.6978 105.554 77.785 105.767 77.8482C105.983 77.9133 106.254 77.9211 106.579 77.8713C107.014 77.8048 107.357 77.6445 107.608 77.3906C107.859 77.1367 107.95 76.7851 107.881 76.3358L107.713 75.2407L107.643 75.2514C107.597 75.359 107.529 75.4939 107.439 75.6562C107.351 75.8158 107.211 75.9676 107.02 76.1118C106.831 76.2533 106.561 76.3509 106.21 76.4045C105.775 76.4711 105.368 76.4279 104.99 76.2749C104.615 76.1216 104.296 75.8638 104.034 75.5014C103.775 75.1387 103.602 74.6766 103.516 74.115C103.432 73.5627 103.455 73.067 103.586 72.6278C103.717 72.1863 103.939 71.8267 104.251 71.5491C104.562 71.2691 104.945 71.0944 105.399 71.025C105.75 70.9713 106.037 70.9872 106.261 71.0728C106.487 71.1556 106.666 71.2623 106.799 71.3929C106.934 71.5208 107.038 71.6269 107.114 71.7112L107.198 71.6983L107.067 70.8418L107.867 70.7194L108.718 76.2653C108.789 76.7286 108.742 77.1215 108.576 77.4439C108.412 77.7682 108.164 78.0253 107.832 78.215C107.502 78.4068 107.122 78.5356 106.691 78.6014ZM106.208 75.6432C106.541 75.5924 106.81 75.4734 107.016 75.2862C107.222 75.0991 107.362 74.8536 107.438 74.5499C107.514 74.2461 107.521 73.8954 107.46 73.4976C107.4 73.1091 107.289 72.7753 107.126 72.496C106.964 72.2167 106.755 72.0103 106.5 71.8769C106.244 71.7435 105.948 71.7026 105.611 71.7541C105.26 71.8078 104.981 71.9414 104.775 72.1551C104.57 72.3683 104.433 72.6337 104.362 72.9511C104.293 73.2682 104.287 73.6092 104.343 73.9743C104.4 74.3487 104.509 74.6708 104.671 74.9408C104.834 75.208 105.044 75.4058 105.301 75.5342C105.559 75.6598 105.862 75.6962 106.208 75.6432ZM111.728 70.129L111.836 70.831L109.042 71.2583L108.934 70.5563L111.728 70.129ZM109.55 69.14L110.379 69.0133L111.167 74.152C111.203 74.386 111.264 74.5564 111.35 74.663C111.438 74.7669 111.538 74.8305 111.652 74.8538C111.768 74.8745 111.887 74.8755 112.008 74.8569C112.1 74.8429 112.174 74.8268 112.231 74.8085C112.288 74.7878 112.333 74.7713 112.367 74.7589L112.65 75.4773C112.597 75.5069 112.522 75.54 112.424 75.5764C112.327 75.6152 112.201 75.6464 112.047 75.67C111.813 75.7058 111.576 75.6906 111.336 75.6243C111.098 75.5577 110.89 75.4327 110.711 75.2493C110.534 75.0656 110.421 74.8169 110.373 74.5034L109.55 69.14ZM114.248 71.9421L114.746 75.1854L113.918 75.3121L112.814 68.1236L113.643 67.9969L114.048 70.6364L114.118 70.6257C114.202 70.3279 114.357 70.0778 114.585 69.8753C114.815 69.6702 115.141 69.5352 115.565 69.4704C115.932 69.4142 116.265 69.4388 116.564 69.5439C116.862 69.6468 117.111 69.8375 117.309 70.1161C117.51 70.392 117.646 70.7616 117.717 71.225L118.242 74.6508L117.414 74.7775L116.897 71.4078C116.831 70.9796 116.669 70.6655 116.411 70.4655C116.155 70.2628 115.831 70.1913 115.44 70.2511C115.169 70.2926 114.934 70.3871 114.737 70.5347C114.541 70.6819 114.398 70.875 114.308 71.1139C114.22 71.3525 114.2 71.6286 114.248 71.9421Z" fill="black"/>
<path d="M4.35145 65.9707L4.94467 60.3016L5.75623 60.6436L5.21595 64.9477L5.26831 64.9698L7.96841 61.5758L8.79307 61.9233L8.23213 66.2033L8.28449 66.2254L10.9922 62.85L11.8037 63.192L8.14749 67.5704L7.38828 67.2504L7.92101 62.9277L7.84247 62.8946L5.11066 66.2906L4.35145 65.9707ZM10.7 68.646L12.8247 63.6223L13.597 63.9477L11.4723 68.9714L10.7 68.646ZM13.5715 62.9505C13.421 62.887 13.3129 62.7811 13.2471 62.6327C13.1836 62.4851 13.1822 62.3394 13.2431 62.1955C13.304 62.0516 13.4095 61.9509 13.5598 61.8935C13.7122 61.837 13.8637 61.8404 14.0142 61.9039C14.1647 61.9673 14.2718 62.0728 14.3353 62.2203C14.4011 62.3688 14.4035 62.5149 14.3426 62.6588C14.2818 62.8028 14.1751 62.903 14.0227 62.9595C13.8725 63.0169 13.7221 63.0139 13.5715 62.9505ZM14.7406 70.472C14.3217 70.2955 13.9966 70.0339 13.7654 69.6873C13.5351 69.3384 13.4114 68.9318 13.3945 68.4674C13.3785 68.0008 13.483 67.5015 13.708 66.9694C13.9312 66.4418 14.2154 66.022 14.5606 65.7102C14.9058 65.3984 15.2846 65.2048 15.697 65.1294C16.1093 65.0539 16.5271 65.1054 16.9503 65.2837C17.2776 65.4216 17.513 65.5851 17.6567 65.7741C17.8035 65.9618 17.898 66.1455 17.9403 66.3252C17.9857 66.5036 18.0183 66.6483 18.0381 66.7595L18.1035 66.787L19.1493 64.3144L19.9216 64.6399L17.0886 71.3381L16.3425 71.0237L16.669 70.2519L16.5773 70.2132C16.4819 70.2809 16.3523 70.3625 16.1886 70.4579C16.0257 70.5511 15.8242 70.6114 15.5839 70.6386C15.3446 70.6636 15.0635 70.6081 14.7406 70.472ZM15.1385 69.8227C15.4483 69.9533 15.7443 69.9829 16.0263 69.9117C16.3093 69.8382 16.5672 69.6811 16.8002 69.4401C17.0341 69.197 17.2313 68.8858 17.3918 68.5064C17.5504 68.1313 17.6347 67.7802 17.6445 67.453C17.6553 67.1235 17.587 66.8353 17.4396 66.5882C17.2932 66.3389 17.0628 66.1481 16.7487 66.0157C16.4214 65.8778 16.1132 65.8468 15.8241 65.9228C15.538 65.9975 15.28 66.1547 15.0501 66.3944C14.8233 66.6328 14.6353 66.9286 14.4859 67.2818C14.3346 67.6394 14.2518 67.9873 14.2373 68.3254C14.2259 68.6623 14.2917 68.9624 14.4349 69.2256C14.5811 69.4876 14.8157 69.6867 15.1385 69.8227ZM22.921 67.8769L22.6444 68.531L20.0395 67.4333L20.3162 66.7792L22.921 67.8769ZM21.5844 65.8955L22.3567 66.2209L20.3316 71.0092C20.2394 71.2272 20.2019 71.4041 20.219 71.5397C20.2393 71.6742 20.2917 71.7811 20.3764 71.8604C20.4642 71.9385 20.5648 72.0015 20.6783 72.0493C20.7633 72.0851 20.835 72.1102 20.8932 72.1244C20.9524 72.1365 20.9997 72.1462 21.0352 72.1534L20.899 72.913C20.8384 72.9106 20.757 72.8994 20.6549 72.8795C20.5518 72.8618 20.4283 72.8226 20.2843 72.7619C20.0662 72.6699 19.8722 72.533 19.7024 72.351C19.5348 72.1699 19.4229 71.9544 19.3666 71.7046C19.3125 71.4557 19.3472 71.1852 19.4708 70.893L21.5844 65.8955ZM24.1165 70.739L22.8383 73.7611L22.066 73.4356L24.899 66.7373L25.6713 67.0628L24.6311 69.5223L24.6965 69.5499C24.9241 69.3401 25.1879 69.2085 25.4881 69.1551C25.7914 69.1005 26.1404 69.1564 26.5353 69.3228C26.8778 69.4672 27.1488 69.6623 27.3481 69.9081C27.5483 70.1518 27.6599 70.4441 27.6827 70.7852C27.7087 71.1249 27.6304 71.5107 27.4478 71.9424L26.0977 75.1345L25.3254 74.8091L26.6533 71.6693C26.8221 71.2703 26.849 70.9181 26.7339 70.6127C26.622 70.306 26.3839 70.076 26.0195 69.9224C25.7665 69.8158 25.517 69.7736 25.2711 69.7959C25.0274 69.819 24.8044 69.9087 24.602 70.065C24.4019 70.2221 24.2401 70.4468 24.1165 70.739Z" fill="black"/>
</g>
<defs>
<filter id="filter0_d_29_944" x="-0.755127" y="-1" width="140.175" height="66.9656" filterUnits="userSpaceOnUse" color-interpolation-filters="sRGB">
<feFlood flood-opacity="0" result="BackgroundImageFix"/>
<feColorMatrix in="SourceAlpha" type="matrix" values="0 0 0 0 0 0 0 0 0 0 0 0 0 0 0 0 0 0 127 0" result="hardAlpha"/>
<feOffset dy="4"/>
<feGaussianBlur stdDeviation="2"/>
<feComposite in2="hardAlpha" operator="out"/>
<feColorMatrix type="matrix" values="0 0 0 0 0 0 0 0 0 0 0 0 0 0 0 0 0 0 0.25 0"/>
<feBlend mode="normal" in2="BackgroundImageFix" result="effect1_dropShadow_29_944"/>
<feBlend mode="normal" in="SourceGraphic" in2="effect1_dropShadow_29_944" result="shape"/>
</filter>
<clipPath id="clip0_29_944">
<rect width="183" height="83" fill="white"/>
</clipPath>
</defs>
</svg>
