<svg width="288" height="262" viewBox="0 0 288 262" fill="none" xmlns="http://www.w3.org/2000/svg">
<g clip-path="url(#clip0_29_1011)">
<path d="M62.315 255.982L51.2986 198.319C50.3186 193.788 47.959 184.06 46.3615 181.393C44.7639 178.725 37.9993 165.177 34.8933 159.326L29.0825 147.703L18.254 127.55L4.86402 105.733C3.22544 103.151 -1.18569 96.2921 1.20618 92.6326C3.48807 89.1414 8.76406 93.6462 10.6589 96.1948L29.9133 124.037C32.628 126.878 32.2436 126.928 32.8645 113.671" stroke="#00C2E8" stroke-width="2" stroke-linejoin="round"/>
<path d="M32.8643 113.671C33.0444 112.05 33.8911 109.544 37.7345 109.045C42.6924 108.4 47.1271 113.147 47.6977 116.533C47.8017 113.325 47.5951 108.905 49.6491 107.495C52.5196 105.525 55.4092 103.701 59.1555 105.46C64.4031 107.924 57.465 104.482 63.1307 96.9575C67.6633 90.9376 74.3438 98.028 77.2196 103.111C80.3167 109.895 87.4278 123.904 91.096 125.663C95.6812 127.862 101.062 127.162 103.857 121.608C106.653 116.054 112.81 106.707 122.851 102.368C132.103 98.3695 138.062 102.12 140.657 104.045C136.181 107.688 130.842 109.714 124.561 118.516C123.422 120.112 118.306 124.52 113.382 134.744C106.052 149.964 100.895 155.933 97.1725 172.389C94.1944 185.553 102.706 229.966 107.334 250.527" stroke="#00C2E8" stroke-width="2" stroke-linejoin="round"/>
<path d="M30.2416 128.978C30.1599 128.35 30.4307 126.425 30.6018 125.737C30.875 125.835 31.6768 126.282 32.1902 125.93C32.9078 125.437 32.8568 125.044 33.088 123.817C33.3191 122.589 33.3089 118.24 33.553 115.371C33.8621 111.737 33.9132 112.13 34.5798 111.244C35.113 110.536 36.7328 109.766 37.5014 109.667C38.27 109.567 41.5495 109.539 44.0593 112.008C45.8519 113.771 46.3384 114.507 46.927 116.027C47.4058 117.264 47.4645 117.155 47.8489 117.105C48.2332 117.055 48.4384 116.629 48.5154 116.22C48.2601 114.257 48.5052 110.492 49.1848 109.345C50.4668 107.182 51.6784 107.141 52.7218 106.489C54.1051 105.626 55.1953 105.348 56.0788 105.254C57.5499 105.097 60.9555 107.008 61.7149 106.518C62.4744 106.028 61.3239 105.482 61.5375 102.149C61.7302 99.1416 63.335 97.459 63.6152 97.0869C64.5456 95.8512 65.9562 95.0522 66.8701 95.0664C68.3416 95.0893 68.2994 95.1604 70.5844 96.5799C72.7103 97.9005 75.2197 101.168 76.0645 102.655L80.7491 111.629C82.2766 114.358 85.1365 119.838 85.3826 120.21C85.8691 120.945 88.494 125.446 91.2982 126.628C94.1929 127.849 96.0238 127.611 96.8833 127.499C98.0363 127.349 99.5566 127.018 100.291 126.656C100.855 126.982 100.722 127.688 100.547 128.62C100.315 129.848 101.118 136.531 100.03 136.673C98.8775 136.823 96.9997 134.405 95.7275 133.639C94.5664 132.725 92.2953 131.29 91.4756 130.997C90.7424 130.735 88.6319 130.169 87.3768 129.534C86.1217 128.898 84.1248 125.564 82.6654 123.359C81.155 120.76 80.182 119.289 80.182 119.289L78.3893 117.526L77.0321 116.105L76.1102 115.027L75.1373 113.557C74.2154 112.479 74.6508 112.821 73.7288 111.743C72.8069 110.665 72.2945 110.732 72.0383 110.765L72.0382 110.765L70.1166 111.015C68.8867 111.175 68.0828 113.409 67.8347 114.506C67.4754 115.751 66.5467 118.427 65.706 119.175C64.8652 119.924 64.0064 119.13 63.6821 118.64C62.6922 117.038 61.1477 114.178 59.1238 113.643C57.1 113.107 54.5117 114.242 53.8452 115.128C53.1786 116.013 52.8916 116.21 50.6145 120.339C48.3374 124.469 45.8384 124.687 44.8735 124.28C44.0708 124.119 42.2348 123.825 41.3123 123.945C40.1593 124.095 38.6219 124.295 37.1356 124.887C35.9466 125.361 34.6405 127.741 34.1361 128.871C33.3325 130.706 32.6471 135.453 31.2387 133.64C29.8304 131.827 30.3438 129.763 30.2416 128.978Z" fill="#57C0E6" fill-opacity="0.3"/>
<path d="M9.44707 107.326C7.06593 104.042 5.17126 101.493 4.53146 99.5796C4.34515 99.0225 3.8406 97.2737 3.67124 94.9C3.77068 93.9376 4.34609 92.9186 4.76521 92.362C3.94547 92.0693 3.79168 92.0893 3.17678 92.1692C2.40817 92.2692 1.69064 92.7618 1.4595 93.9897C1.16713 95.543 1.3125 97.8687 2.71188 100.615L15.6664 122.089L27.9033 144.056L38.9871 166.173L30.9027 140.072L27.5485 135.318L18.741 121.689L9.44707 107.326Z" fill="#57C0E6" fill-opacity="0.3"/>
<path d="M114.872 121.566C112.924 123.416 108.552 140.09 108.585 142.348C111.687 139.15 113.972 129.669 123.123 118.896C132.275 108.123 137.503 106.245 139.554 103.982L135.788 102.076C134.319 102.799 130.683 104.896 127.894 107.494C125.105 110.093 117.307 119.253 114.872 121.566Z" fill="#57C0E6" fill-opacity="0.3"/>
<path d="M225.521 255.982L236.537 198.319C237.517 193.788 239.877 184.06 241.474 181.393C243.072 178.725 249.837 165.177 252.943 159.326L258.753 147.703L269.582 127.55L282.972 105.733C284.61 103.151 289.022 96.2921 286.63 92.6326C284.348 89.1414 279.072 93.6462 277.177 96.1948L257.923 124.037C255.208 126.878 255.592 126.928 254.971 113.671" stroke="#00C2E8" stroke-width="2" stroke-linejoin="round"/>
<path d="M254.972 113.671C254.792 112.05 253.945 109.544 250.101 109.045C245.144 108.4 240.709 113.147 240.138 116.533C240.034 113.325 240.241 108.905 238.187 107.495C235.316 105.525 232.427 103.701 228.68 105.46C223.433 107.924 230.371 104.482 224.705 96.9575C220.173 90.9376 213.492 98.028 210.616 103.111C207.519 109.895 200.408 123.904 196.74 125.663C192.155 127.862 186.774 127.162 183.979 121.608C181.183 116.054 175.025 106.707 164.985 102.368C155.733 98.3695 149.774 102.12 147.178 104.045C151.655 107.688 156.994 109.714 163.275 118.516C164.414 120.112 169.53 124.52 174.454 134.744C181.784 149.964 186.941 155.933 190.663 172.389C193.642 185.553 185.13 229.966 180.502 250.527" stroke="#00C2E8" stroke-width="2" stroke-linejoin="round"/>
<path d="M257.594 128.978C257.676 128.35 257.405 126.425 257.234 125.737C256.961 125.835 256.159 126.282 255.646 125.93C254.928 125.437 254.979 125.044 254.748 123.817C254.517 122.589 254.527 118.24 254.283 115.371C253.974 111.737 253.923 112.13 253.256 111.244C252.723 110.536 251.103 109.766 250.335 109.667C249.566 109.567 246.286 109.539 243.777 112.008C241.984 113.771 241.498 114.507 240.909 116.027C240.43 117.264 240.371 117.155 239.987 117.105C239.603 117.055 239.398 116.629 239.32 116.22C239.576 114.257 239.331 110.492 238.651 109.345C237.369 107.182 236.158 107.141 235.114 106.489C233.731 105.626 232.641 105.348 231.757 105.254C230.286 105.097 226.88 107.008 226.121 106.518C225.362 106.028 226.512 105.482 226.298 102.149C226.106 99.1416 224.501 97.459 224.221 97.0869C223.29 95.8512 221.88 95.0522 220.966 95.0664C219.494 95.0893 219.536 95.1604 217.252 96.5799C215.126 97.9005 212.616 101.168 211.771 102.655L207.087 111.629C205.559 114.358 202.699 119.838 202.453 120.21C201.967 120.945 199.342 125.446 196.538 126.628C193.643 127.849 191.812 127.611 190.953 127.499C189.8 127.349 188.279 127.018 187.545 126.656C186.981 126.982 187.114 127.688 187.289 128.62C187.521 129.848 186.718 136.531 187.805 136.673C188.958 136.823 190.836 134.405 192.108 133.639C193.27 132.725 195.541 131.29 196.36 130.997C197.094 130.735 199.204 130.169 200.459 129.534C201.714 128.898 203.711 125.564 205.171 123.359C206.681 120.76 207.654 119.289 207.654 119.289L209.447 117.526L210.804 116.105L211.726 115.027L212.699 113.557C213.621 112.479 213.185 112.821 214.107 111.743C215.029 110.665 215.541 110.732 215.798 110.765L215.798 110.765L217.719 111.015C218.949 111.175 219.753 113.409 220.001 114.506C220.361 115.751 221.289 118.427 222.13 119.175C222.971 119.924 223.829 119.13 224.154 118.64C225.144 117.038 226.688 114.178 228.712 113.643C230.736 113.107 233.324 114.242 233.991 115.128C234.657 116.013 234.944 116.21 237.221 120.339C239.498 124.469 241.998 124.687 242.962 124.28C243.765 124.119 245.601 123.825 246.524 123.945C247.677 124.095 249.214 124.295 250.7 124.887C251.889 125.361 253.195 127.741 253.7 128.871C254.503 130.706 255.189 135.453 256.597 133.64C258.006 131.827 257.492 129.763 257.594 128.978Z" fill="#57C0E6" fill-opacity="0.3"/>
<path d="M278.389 107.326C280.77 104.042 282.665 101.493 283.304 99.5796C283.491 99.0225 283.995 97.2737 284.165 94.9C284.065 93.9376 283.49 92.9186 283.071 92.362C283.89 92.0693 284.044 92.0893 284.659 92.1692C285.428 92.2692 286.145 92.7618 286.376 93.9897C286.669 95.543 286.523 97.8687 285.124 100.615L272.17 122.089L259.933 144.056L248.849 166.173L256.933 140.072L260.287 135.318L269.095 121.689L278.389 107.326Z" fill="#57C0E6" fill-opacity="0.3"/>
<path d="M172.964 121.566C174.912 123.416 179.284 140.09 179.25 142.348C176.149 139.15 173.864 129.669 164.712 118.896C155.561 108.123 150.333 106.245 148.282 103.982L152.048 102.076C153.517 102.799 157.153 104.896 159.942 107.494C162.73 110.093 170.529 119.253 172.964 121.566Z" fill="#57C0E6" fill-opacity="0.3"/>
<g filter="url(#filter0_d_29_1011)">
<path d="M144.5 77.5H28V22.5M28 22.5H144.5M28 22.5L70 0H144.5" stroke="#00C2E8" stroke-width="2"/>
<path d="M143 77.5H259.5V22.5M259.5 22.5H143M259.5 22.5L217.5 0H143" stroke="#00C2E8" stroke-width="2"/>
</g>
</g>
<defs>
<filter id="filter0_d_29_1011" x="23" y="-1" width="241.5" height="87.5" filterUnits="userSpaceOnUse" color-interpolation-filters="sRGB">
<feFlood flood-opacity="0" result="BackgroundImageFix"/>
<feColorMatrix in="SourceAlpha" type="matrix" values="0 0 0 0 0 0 0 0 0 0 0 0 0 0 0 0 0 0 127 0" result="hardAlpha"/>
<feOffset dy="4"/>
<feGaussianBlur stdDeviation="2"/>
<feComposite in2="hardAlpha" operator="out"/>
<feColorMatrix type="matrix" values="0 0 0 0 0 0 0 0 0 0 0 0 0 0 0 0 0 0 0.25 0"/>
<feBlend mode="normal" in2="BackgroundImageFix" result="effect1_dropShadow_29_1011"/>
<feBlend mode="normal" in="SourceGraphic" in2="effect1_dropShadow_29_1011" result="shape"/>
</filter>
<clipPath id="clip0_29_1011">
<rect width="287.836" height="261.613" fill="white"/>
</clipPath>
</defs>
</svg>
