<svg width="128" height="128" viewBox="0 0 128 128" fill="none" xmlns="http://www.w3.org/2000/svg">
<g clip-path="url(#clip0_29_498)">
<circle cx="64" cy="64" r="61.5" fill="white" stroke="black" stroke-width="5"/>
<circle cx="64" cy="64" r="50" fill="black"/>
<path d="M40.5747 86.8569L38.376 78.7021L36.1494 86.8569C35.9762 87.4754 35.8371 87.9207 35.7319 88.1929C35.633 88.4588 35.4567 88.7 35.2031 88.9165C34.9495 89.1268 34.6125 89.2319 34.1919 89.2319C33.8517 89.2319 33.5703 89.167 33.3477 89.0371C33.1312 88.9134 32.9549 88.7371 32.8188 88.5083C32.6828 88.2733 32.5715 87.998 32.4849 87.6826C32.3983 87.361 32.321 87.0641 32.2529 86.792L29.9893 77.6353C29.8532 77.1034 29.7852 76.6982 29.7852 76.4199C29.7852 76.0674 29.9089 75.7705 30.1562 75.5293C30.4036 75.2881 30.7098 75.1675 31.0747 75.1675C31.5757 75.1675 31.9128 75.3283 32.0859 75.6499C32.2591 75.9715 32.4106 76.4385 32.5405 77.0508L34.3218 84.9922L36.3164 77.561C36.4648 76.992 36.5978 76.5591 36.7153 76.2622C36.8328 75.9653 37.0246 75.7087 37.2905 75.4922C37.5565 75.2757 37.9183 75.1675 38.376 75.1675C38.8398 75.1675 39.1986 75.2819 39.4521 75.5107C39.7119 75.7334 39.8913 75.9777 39.9902 76.2437C40.0892 76.5096 40.2222 76.9487 40.3892 77.561L42.4023 84.9922L44.1836 77.0508C44.2702 76.6364 44.3506 76.3117 44.4248 76.0767C44.5052 75.8416 44.6382 75.6313 44.8237 75.4458C45.0155 75.2603 45.2907 75.1675 45.6494 75.1675C46.0081 75.1675 46.3112 75.2881 46.5586 75.5293C46.8122 75.7643 46.939 76.0612 46.939 76.4199C46.939 76.6735 46.8709 77.0786 46.7349 77.6353L44.4712 86.792C44.3166 87.4105 44.1867 87.8651 44.0815 88.1558C43.9826 88.4403 43.8094 88.6908 43.562 88.9072C43.3208 89.1237 42.9775 89.2319 42.5322 89.2319C42.1117 89.2319 41.7746 89.1268 41.521 88.9165C41.2674 88.7062 41.0911 88.4712 40.9922 88.2114C40.8932 87.9455 40.7541 87.494 40.5747 86.8569ZM54.5186 87.8032C53.9062 88.2795 53.3125 88.6382 52.7373 88.8794C52.1683 89.1144 51.5282 89.2319 50.8169 89.2319C50.1675 89.2319 49.5954 89.1051 49.1006 88.8516C48.612 88.5918 48.2347 88.2424 47.9688 87.8032C47.7028 87.3641 47.5698 86.8879 47.5698 86.3745C47.5698 85.6818 47.7894 85.0911 48.2285 84.6025C48.6676 84.1139 49.2707 83.7861 50.0376 83.6191C50.1984 83.582 50.5973 83.4985 51.2344 83.3687C51.8714 83.2388 52.4157 83.1213 52.8672 83.0161C53.3249 82.9048 53.8197 82.7718 54.3516 82.6172C54.3206 81.9492 54.1846 81.4606 53.9434 81.1514C53.7083 80.8359 53.2166 80.6782 52.4683 80.6782C51.825 80.6782 51.3395 80.7679 51.0117 80.9473C50.6901 81.1266 50.4118 81.3957 50.1768 81.7544C49.9479 82.1131 49.784 82.3512 49.6851 82.4688C49.5923 82.5801 49.3882 82.6357 49.0728 82.6357C48.7882 82.6357 48.5409 82.5461 48.3306 82.3667C48.1265 82.1812 48.0244 81.9461 48.0244 81.6616C48.0244 81.2163 48.1821 80.7834 48.4976 80.3628C48.813 79.9422 49.3047 79.5959 49.9727 79.3237C50.6406 79.0516 51.4725 78.9155 52.4683 78.9155C53.5815 78.9155 54.4567 79.0485 55.0938 79.3145C55.7308 79.5742 56.1792 79.9886 56.439 80.5576C56.7049 81.1266 56.8379 81.8812 56.8379 82.8213C56.8379 83.415 56.8348 83.9191 56.8286 84.3335C56.8286 84.7479 56.8255 85.2087 56.8193 85.7158C56.8193 86.1921 56.8966 86.6899 57.0513 87.2095C57.2121 87.7228 57.2925 88.0537 57.2925 88.2021C57.2925 88.4619 57.1688 88.7 56.9214 88.9165C56.6802 89.1268 56.4049 89.2319 56.0957 89.2319C55.8359 89.2319 55.5793 89.1113 55.3257 88.8701C55.0721 88.6227 54.8031 88.2671 54.5186 87.8032ZM54.3516 84.1387C53.9805 84.2747 53.4393 84.4201 52.728 84.5747C52.0229 84.7231 51.5343 84.8345 51.2622 84.9087C50.9901 84.9767 50.7303 85.1159 50.4829 85.3262C50.2355 85.5303 50.1118 85.8179 50.1118 86.189C50.1118 86.5724 50.2572 86.9002 50.5479 87.1724C50.8385 87.4383 51.2189 87.5713 51.689 87.5713C52.1899 87.5713 52.6507 87.4631 53.0713 87.2466C53.498 87.0239 53.8104 86.7394 54.0083 86.3931C54.2371 86.0096 54.3516 85.3787 54.3516 84.5005V84.1387ZM59.417 87.6919V76.7075C59.417 76.2004 59.5283 75.8169 59.751 75.5571C59.9798 75.2974 60.286 75.1675 60.6694 75.1675C61.0529 75.1675 61.3621 75.2974 61.5972 75.5571C61.8322 75.8107 61.9497 76.1942 61.9497 76.7075V87.6919C61.9497 88.2052 61.8291 88.5918 61.5879 88.8516C61.3529 89.1051 61.0467 89.2319 60.6694 89.2319C60.2983 89.2319 59.9953 89.099 59.7603 88.833C59.5314 88.5671 59.417 88.1867 59.417 87.6919ZM67.1079 80.3721V87.6919C67.1079 88.1991 66.9873 88.5825 66.7461 88.8423C66.5049 89.1021 66.1987 89.2319 65.8276 89.2319C65.4565 89.2319 65.1535 89.099 64.9185 88.833C64.6896 88.5671 64.5752 88.1867 64.5752 87.6919V80.4463C64.5752 79.9453 64.6896 79.568 64.9185 79.3145C65.1535 79.0609 65.4565 78.9341 65.8276 78.9341C66.1987 78.9341 66.5049 79.0609 66.7461 79.3145C66.9873 79.568 67.1079 79.9206 67.1079 80.3721ZM65.8555 77.7559C65.5029 77.7559 65.1999 77.6476 64.9463 77.4312C64.6989 77.2147 64.5752 76.9085 64.5752 76.5127C64.5752 76.154 64.702 75.8602 64.9556 75.6313C65.2153 75.3963 65.5153 75.2788 65.8555 75.2788C66.1833 75.2788 66.474 75.384 66.7275 75.5942C66.9811 75.8045 67.1079 76.1107 67.1079 76.5127C67.1079 76.9023 66.9842 77.2085 66.7368 77.4312C66.4894 77.6476 66.1956 77.7559 65.8555 77.7559ZM69.8726 79.1567H70.1509V77.6353C70.1509 77.2271 70.1602 76.9085 70.1787 76.6797C70.2035 76.4447 70.2653 76.2437 70.3643 76.0767C70.4632 75.9035 70.6055 75.7643 70.791 75.6592C70.9766 75.5479 71.1838 75.4922 71.4126 75.4922C71.7342 75.4922 72.0249 75.6128 72.2847 75.854C72.4578 76.0148 72.5661 76.2127 72.6094 76.4478C72.6589 76.6766 72.6836 77.0044 72.6836 77.4312V79.1567H73.6113C73.9701 79.1567 74.2422 79.2433 74.4277 79.4165C74.6195 79.5835 74.7153 79.8 74.7153 80.0659C74.7153 80.4061 74.5793 80.6442 74.3071 80.7803C74.0412 80.9163 73.6577 80.9844 73.1567 80.9844H72.6836V85.6416C72.6836 86.0374 72.696 86.3436 72.7207 86.5601C72.7516 86.7703 72.8258 86.9435 72.9434 87.0796C73.0671 87.2095 73.265 87.2744 73.5371 87.2744C73.6855 87.2744 73.8866 87.2497 74.1401 87.2002C74.3937 87.1445 74.5916 87.1167 74.7339 87.1167C74.938 87.1167 75.1204 87.2002 75.2812 87.3672C75.4482 87.528 75.5317 87.729 75.5317 87.9702C75.5317 88.3784 75.3091 88.6908 74.8638 88.9072C74.4185 89.1237 73.7783 89.2319 72.9434 89.2319C72.1517 89.2319 71.5518 89.099 71.1436 88.833C70.7354 88.5671 70.4663 88.1991 70.3364 87.729C70.2127 87.259 70.1509 86.6312 70.1509 85.8457V80.9844H69.8169C69.452 80.9844 69.1737 80.8978 68.9819 80.7246C68.7902 80.5514 68.6943 80.3319 68.6943 80.0659C68.6943 79.8 68.7933 79.5835 68.9912 79.4165C69.1953 79.2433 69.4891 79.1567 69.8726 79.1567ZM85.9502 84.083C85.9502 84.8376 85.8327 85.5334 85.5977 86.1704C85.3626 86.8075 85.0225 87.3548 84.5771 87.8125C84.1318 88.2702 83.5999 88.6227 82.9814 88.8701C82.363 89.1113 81.6672 89.2319 80.894 89.2319C80.1271 89.2319 79.4375 89.1082 78.8252 88.8608C78.2129 88.6134 77.681 88.2609 77.2295 87.8032C76.7842 87.3394 76.444 86.7951 76.209 86.1704C75.9801 85.5396 75.8657 84.8438 75.8657 84.083C75.8657 83.3161 75.9832 82.6141 76.2183 81.9771C76.4533 81.34 76.7904 80.7957 77.2295 80.3442C77.6686 79.8927 78.2005 79.5464 78.8252 79.3052C79.4499 79.0578 80.1395 78.9341 80.894 78.9341C81.661 78.9341 82.3568 79.0578 82.9814 79.3052C83.6061 79.5526 84.1411 79.9051 84.5864 80.3628C85.0317 80.8205 85.3688 81.3647 85.5977 81.9956C85.8327 82.6265 85.9502 83.3223 85.9502 84.083ZM83.4082 84.083C83.4082 83.0501 83.1794 82.2461 82.7217 81.6709C82.2702 81.0957 81.661 80.8081 80.894 80.8081C80.3993 80.8081 79.9632 80.938 79.5859 81.1978C79.2087 81.4513 78.918 81.8286 78.7139 82.3296C78.5098 82.8306 78.4077 83.415 78.4077 84.083C78.4077 84.7448 78.5067 85.3231 78.7046 85.8179C78.9087 86.3127 79.1963 86.693 79.5674 86.959C79.9447 87.2188 80.3869 87.3486 80.894 87.3486C81.661 87.3486 82.2702 87.061 82.7217 86.4858C83.1794 85.9045 83.4082 85.1035 83.4082 84.083ZM87.9541 87.6919V76.7075C87.9541 76.2004 88.0654 75.8169 88.2881 75.5571C88.5169 75.2974 88.8231 75.1675 89.2065 75.1675C89.59 75.1675 89.8993 75.2974 90.1343 75.5571C90.3693 75.8107 90.4868 76.1942 90.4868 76.7075V87.6919C90.4868 88.2052 90.3662 88.5918 90.125 88.8516C89.89 89.1051 89.5838 89.2319 89.2065 89.2319C88.8354 89.2319 88.5324 89.099 88.2974 88.833C88.0685 88.5671 87.9541 88.1867 87.9541 87.6919ZM93.2515 79.1567H93.5298V77.6353C93.5298 77.2271 93.5391 76.9085 93.5576 76.6797C93.5824 76.4447 93.6442 76.2437 93.7432 76.0767C93.8421 75.9035 93.9844 75.7643 94.1699 75.6592C94.3555 75.5479 94.5627 75.4922 94.7915 75.4922C95.1131 75.4922 95.4038 75.6128 95.6636 75.854C95.8368 76.0148 95.945 76.2127 95.9883 76.4478C96.0378 76.6766 96.0625 77.0044 96.0625 77.4312V79.1567H96.9902C97.349 79.1567 97.6211 79.2433 97.8066 79.4165C97.9984 79.5835 98.0942 79.8 98.0942 80.0659C98.0942 80.4061 97.9582 80.6442 97.686 80.7803C97.4201 80.9163 97.0366 80.9844 96.5356 80.9844H96.0625V85.6416C96.0625 86.0374 96.0749 86.3436 96.0996 86.5601C96.1305 86.7703 96.2048 86.9435 96.3223 87.0796C96.446 87.2095 96.6439 87.2744 96.916 87.2744C97.0645 87.2744 97.2655 87.2497 97.519 87.2002C97.7726 87.1445 97.9705 87.1167 98.1128 87.1167C98.3169 87.1167 98.4993 87.2002 98.6602 87.3672C98.8271 87.528 98.9106 87.729 98.9106 87.9702C98.9106 88.3784 98.688 88.6908 98.2427 88.9072C97.7974 89.1237 97.1572 89.2319 96.3223 89.2319C95.5306 89.2319 94.9307 89.099 94.5225 88.833C94.1143 88.5671 93.8452 88.1991 93.7153 87.729C93.5916 87.259 93.5298 86.6312 93.5298 85.8457V80.9844H93.1958C92.8309 80.9844 92.5526 80.8978 92.3608 80.7246C92.1691 80.5514 92.0732 80.3319 92.0732 80.0659C92.0732 79.8 92.1722 79.5835 92.3701 79.4165C92.5742 79.2433 92.868 79.1567 93.2515 79.1567Z" fill="white"/>
<path d="M63.5 43.5L64.8735 42.897C64.6319 42.3468 64.0854 41.9939 63.4845 42.0001C62.8837 42.0063 62.3445 42.3704 62.1144 42.9255L63.5 43.5ZM72.5 64L71.1265 64.603C71.3698 65.157 71.9221 65.5107 72.5271 65.4998C73.1321 65.4888 73.6713 65.1154 73.8944 64.5529L72.5 64ZM85.377 34.405C85.0484 33.6446 84.1655 33.2944 83.405 33.623L71.0124 38.9779C70.252 39.3065 69.9019 40.1893 70.2305 40.9498C70.5591 41.7103 71.4419 42.0604 72.2024 41.7318L83.218 36.9719L87.9779 47.9876C88.3065 48.748 89.1893 49.0981 89.9498 48.7695C90.7103 48.4409 91.0604 47.5581 90.7318 46.7976L85.377 34.405ZM55 64L53.614 64.5735C53.8459 65.1341 54.3928 65.4998 54.9995 65.5C55.6062 65.5002 56.1532 65.135 56.3856 64.5745L55 64ZM44.386 34.4265C44.0693 33.661 43.192 33.2972 42.4265 33.614C41.661 33.9307 41.2972 34.808 41.614 35.5735L44.386 34.4265ZM62.1265 44.103L71.1265 64.603L73.8735 63.397L64.8735 42.897L62.1265 44.103ZM73.8944 64.5529L85.3944 35.5529L82.6056 34.4471L71.1056 63.4471L73.8944 64.5529ZM62.1144 42.9255L53.6144 63.4255L56.3856 64.5745L64.8856 44.0745L62.1144 42.9255ZM56.386 63.4265L44.386 34.4265L41.614 35.5735L53.614 64.5735L56.386 63.4265Z" fill="white"/>
</g>
<defs>
<clipPath id="clip0_29_498">
<rect width="128" height="128" fill="white"/>
</clipPath>
</defs>
</svg>
